<?xml version="1.0" encoding="utf-8"?>
<!-- Generator: Adobe Illustrator 16.0.0, SVG Export Plug-In . SVG Version: 6.00 Build 0)  -->
<!DOCTYPE svg PUBLIC "-//W3C//DTD SVG 1.0//EN" "http://www.w3.org/TR/2001/REC-SVG-20010904/DTD/svg10.dtd">
<svg version="1.0" id="Layer_1" xmlns="http://www.w3.org/2000/svg" xmlns:xlink="http://www.w3.org/1999/xlink" x="0px" y="0px"
	 width="250px" height="51.237px" viewBox="0 0 250 51.237" enable-background="new 0 0 250 51.237" xml:space="preserve">
<g>
	<path fill="#3B5999" d="M250,45.609c0,3.111-2.52,5.629-5.63,5.629H5.631C2.521,51.238,0,48.72,0,45.609V5.631
		C0,2.521,2.521,0,5.631,0H244.37c3.11,0,5.63,2.521,5.63,5.631V45.609z"/>
	<g>
		<path id="Facebook__x28_alt_x29_" fill="#FFFFFF" d="M42.229,15.548c0-2.745-2.479-5.224-5.224-5.224H16.11
			c-2.746,0-5.224,2.479-5.224,5.224v20.895c0,2.744,2.478,5.225,5.225,5.225h10.448V29.826h-3.832v-5.224h3.832v-2.036
			c0-3.509,2.635-6.67,5.877-6.67h4.221v5.223h-4.221c-0.463,0-1.002,0.562-1.002,1.402v2.082h5.223v5.224h-5.223v11.84h5.573
			c2.745,0,5.224-2.479,5.224-5.225V15.548H42.229z"/>
	</g>
	<g>
		<path fill="#FFFFFF" d="M60.983,24.475c-0.084-0.327-0.2-0.626-0.348-0.9c-0.147-0.274-0.335-0.511-0.567-0.71
			c-0.232-0.2-0.502-0.355-0.813-0.466c-0.31-0.11-0.67-0.165-1.081-0.165c-0.6,0-1.118,0.121-1.554,0.362
			c-0.436,0.243-0.792,0.566-1.065,0.971c-0.273,0.405-0.476,0.866-0.607,1.381c-0.132,0.516-0.197,1.042-0.197,1.578
			c0,0.535,0.064,1.062,0.197,1.577c0.131,0.515,0.334,0.976,0.607,1.381c0.273,0.404,0.629,0.729,1.065,0.971
			c0.437,0.242,0.955,0.363,1.554,0.363c0.442,0,0.83-0.076,1.167-0.229c0.336-0.152,0.626-0.363,0.868-0.63
			c0.242-0.269,0.432-0.583,0.567-0.939c0.138-0.358,0.228-0.741,0.269-1.151h1.926c-0.044,0.673-0.188,1.288-0.435,1.845
			c-0.248,0.558-0.582,1.039-1.001,1.443c-0.421,0.406-0.915,0.719-1.483,0.939c-0.567,0.221-1.194,0.332-1.877,0.332
			c-0.842,0-1.597-0.156-2.265-0.467c-0.667-0.309-1.233-0.732-1.695-1.27c-0.463-0.537-0.819-1.164-1.066-1.878
			c-0.246-0.715-0.37-1.478-0.37-2.287c0-0.799,0.124-1.557,0.37-2.272c0.248-0.715,0.603-1.341,1.066-1.876
			c0.462-0.538,1.028-0.963,1.695-1.279c0.667-0.315,1.423-0.474,2.265-0.474c0.631,0,1.226,0.087,1.782,0.261
			c0.557,0.173,1.049,0.425,1.476,0.756c0.426,0.332,0.77,0.735,1.034,1.208c0.262,0.473,0.425,1.015,0.488,1.625h-1.971V24.475z"/>
		<path fill="#FFFFFF" d="M68.257,32.38c-0.652,0-1.233-0.107-1.743-0.324c-0.511-0.217-0.941-0.514-1.295-0.891
			c-0.352-0.379-0.621-0.83-0.804-1.358c-0.185-0.525-0.276-1.104-0.276-1.735c0-0.62,0.091-1.194,0.276-1.721
			c0.183-0.525,0.452-0.977,0.804-1.356c0.353-0.379,0.784-0.675,1.295-0.891c0.51-0.215,1.09-0.324,1.743-0.324
			c0.652,0,1.233,0.107,1.744,0.324c0.509,0.215,0.94,0.512,1.293,0.891c0.352,0.38,0.62,0.832,0.805,1.356
			c0.184,0.527,0.276,1.101,0.276,1.721c0,0.632-0.092,1.209-0.276,1.735c-0.185,0.528-0.453,0.979-0.805,1.358
			c-0.353,0.379-0.784,0.676-1.293,0.891C69.492,32.271,68.909,32.38,68.257,32.38z M68.257,30.96c0.4,0,0.748-0.084,1.042-0.252
			c0.295-0.17,0.537-0.391,0.726-0.664c0.189-0.272,0.33-0.581,0.418-0.922c0.088-0.343,0.134-0.692,0.134-1.05
			c0-0.348-0.044-0.694-0.134-1.042c-0.089-0.348-0.229-0.654-0.418-0.922c-0.189-0.269-0.431-0.487-0.726-0.656
			s-0.642-0.251-1.042-0.251c-0.399,0-0.747,0.083-1.042,0.251c-0.295,0.168-0.537,0.387-0.726,0.656
			c-0.189,0.268-0.329,0.575-0.418,0.922s-0.134,0.694-0.134,1.042c0,0.357,0.045,0.707,0.134,1.05
			c0.089,0.341,0.229,0.649,0.418,0.922c0.189,0.275,0.431,0.494,0.726,0.664C67.51,30.876,67.858,30.96,68.257,30.96z"/>
		<path fill="#FFFFFF" d="M73.874,24.001h1.703v1.2l0.033,0.031c0.273-0.452,0.631-0.806,1.074-1.064
			c0.441-0.257,0.931-0.386,1.467-0.386c0.894,0,1.599,0.231,2.115,0.694c0.515,0.462,0.773,1.157,0.773,2.083v5.6h-1.799V27.03
			c-0.021-0.642-0.158-1.106-0.41-1.396c-0.253-0.289-0.647-0.433-1.183-0.433c-0.306,0-0.579,0.055-0.82,0.165
			c-0.242,0.111-0.448,0.263-0.616,0.458c-0.168,0.195-0.299,0.424-0.394,0.687c-0.096,0.263-0.143,0.541-0.143,0.836v4.811h-1.798
			v-8.157H73.874z"/>
		<path fill="#FFFFFF" d="M84.334,28.546c0,0.314,0.044,0.621,0.135,0.915c0.089,0.293,0.223,0.553,0.402,0.773
			c0.178,0.221,0.404,0.396,0.678,0.527c0.273,0.133,0.6,0.199,0.977,0.199c0.526,0,0.949-0.113,1.271-0.34
			c0.321-0.227,0.56-0.567,0.718-1.019h1.703c-0.095,0.441-0.258,0.837-0.488,1.185c-0.232,0.346-0.511,0.639-0.836,0.875
			s-0.693,0.416-1.096,0.535c-0.404,0.121-0.829,0.182-1.271,0.182c-0.642,0-1.209-0.105-1.703-0.314
			c-0.495-0.211-0.913-0.504-1.254-0.883c-0.342-0.379-0.6-0.832-0.773-1.357c-0.173-0.526-0.26-1.105-0.26-1.737
			c0-0.579,0.092-1.127,0.276-1.648c0.183-0.521,0.447-0.978,0.789-1.373c0.341-0.396,0.755-0.707,1.239-0.939
			c0.483-0.231,1.03-0.347,1.641-0.347c0.642,0,1.217,0.133,1.727,0.401c0.51,0.267,0.934,0.623,1.27,1.064
			c0.337,0.442,0.581,0.949,0.733,1.522s0.192,1.166,0.119,1.774h-5.996V28.546z M88.532,27.361
			c-0.021-0.284-0.082-0.557-0.182-0.82c-0.1-0.262-0.235-0.491-0.41-0.686c-0.174-0.196-0.384-0.352-0.632-0.473
			c-0.247-0.121-0.523-0.182-0.828-0.182c-0.315,0-0.603,0.055-0.86,0.165c-0.258,0.111-0.478,0.263-0.664,0.458
			c-0.183,0.194-0.331,0.424-0.44,0.687c-0.111,0.263-0.172,0.546-0.182,0.852L88.532,27.361L88.532,27.361z M87.175,20.61h2.129
			l-2.24,2.255h-1.309L87.175,20.61z"/>
		<path fill="#FFFFFF" d="M97.209,26.729c-0.073-0.504-0.276-0.885-0.607-1.143c-0.332-0.257-0.75-0.386-1.254-0.386
			c-0.231,0-0.479,0.039-0.742,0.117c-0.263,0.08-0.505,0.227-0.726,0.442c-0.221,0.215-0.406,0.515-0.552,0.899
			c-0.147,0.384-0.221,0.886-0.221,1.507c0,0.337,0.04,0.674,0.118,1.009c0.079,0.339,0.206,0.638,0.379,0.901
			c0.174,0.263,0.397,0.476,0.67,0.638c0.273,0.164,0.605,0.246,0.994,0.246c0.526,0,0.96-0.166,1.302-0.49
			c0.342-0.328,0.555-0.784,0.639-1.373h1.799c-0.168,1.062-0.572,1.875-1.208,2.437c-0.637,0.562-1.48,0.844-2.533,0.844
			c-0.642,0-1.206-0.107-1.695-0.322c-0.49-0.217-0.901-0.512-1.239-0.885c-0.336-0.373-0.591-0.816-0.765-1.333
			c-0.173-0.516-0.26-1.074-0.26-1.673c0-0.61,0.085-1.184,0.252-1.719c0.168-0.538,0.42-1.002,0.757-1.397
			c0.336-0.395,0.755-0.705,1.254-0.93c0.499-0.226,1.087-0.339,1.759-0.339c0.473,0,0.923,0.061,1.349,0.182
			c0.426,0.122,0.804,0.302,1.136,0.544c0.332,0.242,0.603,0.546,0.813,0.915c0.211,0.369,0.336,0.804,0.379,1.308H97.209z"/>
		<path fill="#FFFFFF" d="M99.656,24.001h1.356v-2.444h1.798v2.444h1.626v1.342h-1.626v4.355c0,0.188,0.008,0.352,0.024,0.489
			c0.016,0.137,0.053,0.252,0.11,0.346c0.058,0.096,0.145,0.166,0.26,0.215c0.115,0.047,0.273,0.07,0.473,0.07
			c0.126,0,0.252-0.004,0.379-0.008c0.125-0.004,0.252-0.023,0.379-0.055v1.389c-0.2,0.02-0.395,0.041-0.584,0.062
			c-0.189,0.02-0.384,0.031-0.583,0.031c-0.473,0-0.854-0.045-1.145-0.135c-0.289-0.088-0.515-0.221-0.678-0.395
			c-0.162-0.174-0.273-0.391-0.33-0.654c-0.059-0.264-0.093-0.562-0.103-0.9v-4.813h-1.357L99.656,24.001L99.656,24.001z"/>
		<path fill="#FFFFFF" d="M112.562,30.343c0,0.223,0.03,0.381,0.087,0.475c0.058,0.096,0.172,0.143,0.34,0.143
			c0.052,0,0.115,0,0.189,0s0.157-0.012,0.252-0.033v1.246c-0.063,0.021-0.144,0.045-0.244,0.07c-0.1,0.027-0.202,0.051-0.308,0.07
			c-0.105,0.021-0.21,0.037-0.315,0.049c-0.104,0.01-0.194,0.016-0.269,0.016c-0.369,0-0.673-0.074-0.915-0.221
			c-0.242-0.146-0.399-0.404-0.473-0.773c-0.357,0.348-0.797,0.6-1.317,0.758c-0.521,0.156-1.025,0.236-1.507,0.236
			c-0.368,0-0.722-0.051-1.059-0.15c-0.336-0.098-0.633-0.246-0.89-0.441c-0.259-0.193-0.464-0.441-0.616-0.74
			c-0.153-0.301-0.229-0.65-0.229-1.051c0-0.505,0.092-0.914,0.276-1.23c0.184-0.315,0.428-0.562,0.726-0.741
			c0.3-0.179,0.638-0.308,1.01-0.387c0.373-0.078,0.75-0.139,1.128-0.182c0.327-0.062,0.636-0.106,0.931-0.132
			c0.294-0.027,0.555-0.072,0.781-0.135c0.226-0.063,0.404-0.161,0.537-0.293c0.131-0.131,0.197-0.329,0.197-0.592
			c0-0.231-0.056-0.419-0.166-0.567c-0.11-0.147-0.246-0.26-0.411-0.338c-0.163-0.08-0.344-0.131-0.544-0.158
			c-0.198-0.026-0.389-0.039-0.567-0.039c-0.504,0-0.92,0.104-1.247,0.315c-0.326,0.21-0.511,0.537-0.552,0.978h-1.799
			c0.031-0.525,0.158-0.963,0.379-1.31c0.221-0.347,0.502-0.625,0.845-0.835c0.341-0.209,0.729-0.356,1.16-0.441
			c0.431-0.084,0.873-0.125,1.325-0.125c0.4,0,0.794,0.042,1.184,0.125c0.388,0.085,0.739,0.221,1.049,0.41
			c0.311,0.19,0.561,0.435,0.75,0.733c0.189,0.3,0.284,0.667,0.284,1.097v4.197H112.562z M110.764,28.072
			c-0.273,0.18-0.611,0.287-1.011,0.324c-0.399,0.036-0.799,0.091-1.198,0.166c-0.189,0.031-0.374,0.076-0.552,0.133
			c-0.179,0.058-0.336,0.137-0.474,0.236c-0.137,0.101-0.244,0.231-0.324,0.396c-0.078,0.163-0.117,0.359-0.117,0.592
			c0,0.197,0.056,0.368,0.173,0.504c0.116,0.137,0.254,0.244,0.418,0.324c0.162,0.078,0.341,0.133,0.536,0.166
			c0.193,0.029,0.371,0.047,0.528,0.047c0.2,0,0.416-0.027,0.646-0.08c0.232-0.051,0.451-0.141,0.656-0.268
			c0.205-0.125,0.376-0.287,0.512-0.482c0.136-0.193,0.206-0.433,0.206-0.717L110.764,28.072L110.764,28.072z"/>
		<path fill="#FFFFFF" d="M113.683,24.001h1.357v-2.444h1.798v2.444h1.625v1.342h-1.625v4.355c0,0.188,0.007,0.352,0.024,0.489
			c0.016,0.137,0.052,0.252,0.11,0.346c0.059,0.096,0.145,0.166,0.26,0.215c0.116,0.047,0.274,0.07,0.474,0.07
			c0.126,0,0.252-0.004,0.379-0.008c0.125-0.004,0.252-0.023,0.379-0.055v1.389c-0.2,0.02-0.395,0.041-0.583,0.062
			c-0.189,0.02-0.384,0.031-0.584,0.031c-0.473,0-0.854-0.045-1.144-0.135c-0.29-0.088-0.516-0.221-0.678-0.395
			c-0.163-0.174-0.274-0.391-0.331-0.654c-0.059-0.264-0.092-0.562-0.103-0.9v-4.813h-1.357L113.683,24.001L113.683,24.001z"/>
		<path fill="#FFFFFF" d="M121.161,28.546c0,0.314,0.044,0.621,0.134,0.915c0.089,0.293,0.223,0.553,0.402,0.773
			c0.179,0.221,0.405,0.396,0.678,0.527c0.272,0.133,0.6,0.199,0.978,0.199c0.525,0,0.949-0.113,1.27-0.34
			c0.321-0.227,0.56-0.567,0.718-1.019h1.703c-0.093,0.441-0.258,0.837-0.487,1.185c-0.231,0.346-0.51,0.639-0.837,0.875
			c-0.326,0.236-0.692,0.416-1.097,0.535c-0.404,0.121-0.828,0.182-1.27,0.182c-0.642,0-1.209-0.105-1.703-0.314
			c-0.495-0.211-0.913-0.504-1.255-0.883c-0.341-0.379-0.599-0.832-0.773-1.357c-0.173-0.526-0.26-1.105-0.26-1.737
			c0-0.579,0.092-1.127,0.276-1.648c0.183-0.521,0.448-0.978,0.789-1.373c0.341-0.396,0.755-0.707,1.239-0.939
			c0.484-0.231,1.03-0.347,1.641-0.347c0.642,0,1.217,0.133,1.727,0.401c0.51,0.268,0.934,0.623,1.27,1.064
			c0.337,0.442,0.582,0.949,0.734,1.522c0.153,0.573,0.191,1.166,0.119,1.774h-5.995V28.546z M125.357,27.361
			c-0.021-0.284-0.082-0.557-0.182-0.82c-0.1-0.262-0.236-0.491-0.41-0.686c-0.174-0.196-0.384-0.352-0.631-0.473
			c-0.247-0.121-0.523-0.182-0.828-0.182c-0.315,0-0.604,0.055-0.86,0.165c-0.257,0.111-0.478,0.263-0.663,0.458
			c-0.183,0.194-0.331,0.424-0.441,0.687c-0.111,0.263-0.172,0.546-0.181,0.852L125.357,27.361L125.357,27.361z"/>
		<path fill="#FFFFFF" d="M137.854,25.422c-0.336-0.285-0.789-0.427-1.357-0.427c-0.483,0-0.888,0.09-1.215,0.269
			c-0.326,0.179-0.586,0.416-0.781,0.71c-0.193,0.295-0.334,0.633-0.418,1.017c-0.085,0.383-0.126,0.78-0.126,1.19
			c0,0.381,0.044,0.748,0.135,1.105c0.089,0.357,0.229,0.676,0.418,0.955c0.188,0.279,0.437,0.502,0.741,0.672
			c0.306,0.168,0.669,0.252,1.088,0.252c0.665,0,1.183-0.174,1.555-0.521c0.373-0.348,0.603-0.836,0.687-1.468h1.374
			c-0.148,1.011-0.525,1.791-1.129,2.337c-0.606,0.545-1.428,0.82-2.469,0.82c-0.622,0-1.17-0.102-1.651-0.301
			c-0.478-0.199-0.877-0.484-1.197-0.852c-0.322-0.369-0.564-0.807-0.727-1.318c-0.163-0.51-0.245-1.07-0.245-1.682
			c0-0.608,0.079-1.18,0.237-1.712c0.155-0.531,0.396-0.993,0.719-1.388c0.319-0.393,0.721-0.704,1.204-0.93
			c0.484-0.226,1.049-0.339,1.689-0.339c0.463,0,0.896,0.055,1.302,0.166c0.404,0.11,0.763,0.282,1.073,0.512
			c0.311,0.232,0.566,0.524,0.765,0.875c0.2,0.353,0.326,0.771,0.379,1.254h-1.389C138.411,26.106,138.191,25.705,137.854,25.422z"
			/>
		<path fill="#FFFFFF" d="M141.263,26.407c0.168-0.52,0.421-0.972,0.758-1.356c0.335-0.384,0.75-0.687,1.245-0.906
			c0.495-0.222,1.062-0.333,1.704-0.333c0.652,0,1.224,0.111,1.712,0.333c0.489,0.22,0.901,0.522,1.238,0.906
			c0.337,0.385,0.589,0.836,0.758,1.356c0.168,0.522,0.253,1.082,0.253,1.681c0,0.601-0.085,1.158-0.253,1.673
			c-0.169,0.516-0.421,0.965-0.758,1.348c-0.337,0.385-0.749,0.686-1.238,0.902c-0.488,0.215-1.06,0.322-1.712,0.322
			c-0.642,0-1.209-0.107-1.704-0.322c-0.495-0.217-0.91-0.518-1.245-0.902c-0.337-0.383-0.59-0.832-0.758-1.348
			c-0.169-0.515-0.252-1.073-0.252-1.673C141.011,27.489,141.094,26.929,141.263,26.407z M142.628,29.405
			c0.13,0.386,0.312,0.704,0.544,0.963c0.229,0.258,0.503,0.453,0.812,0.592c0.31,0.137,0.64,0.203,0.986,0.203
			c0.348,0,0.675-0.068,0.985-0.203c0.312-0.139,0.581-0.336,0.814-0.592c0.23-0.259,0.413-0.578,0.544-0.963
			c0.13-0.384,0.197-0.822,0.197-1.317c0-0.493-0.067-0.932-0.197-1.317c-0.131-0.384-0.313-0.707-0.544-0.97
			c-0.232-0.263-0.503-0.463-0.814-0.6c-0.311-0.137-0.638-0.207-0.985-0.207c-0.347,0-0.677,0.069-0.986,0.207
			c-0.31,0.137-0.582,0.337-0.812,0.6c-0.231,0.263-0.414,0.586-0.544,0.97c-0.133,0.385-0.196,0.823-0.196,1.317
			C142.431,28.583,142.494,29.021,142.628,29.405z"/>
		<path fill="#FFFFFF" d="M151.771,24.001v1.295h0.031c0.556-0.989,1.441-1.483,2.65-1.483c0.538,0,0.983,0.074,1.342,0.221
			c0.356,0.147,0.646,0.353,0.867,0.616c0.222,0.263,0.376,0.575,0.466,0.938c0.089,0.363,0.134,0.764,0.134,1.208v5.364h-1.341
			v-5.523c0-0.505-0.148-0.904-0.441-1.198c-0.296-0.296-0.701-0.443-1.216-0.443c-0.409,0-0.765,0.065-1.065,0.189
			c-0.298,0.126-0.547,0.306-0.747,0.538c-0.201,0.232-0.352,0.502-0.45,0.813c-0.101,0.31-0.149,0.65-0.149,1.019v4.606h-1.342
			v-8.158L151.771,24.001L151.771,24.001z"/>
		<path fill="#FFFFFF" d="M163.857,20.893h7.777v1.703h-5.806v2.951h5.095v1.61h-5.095v5h-1.972V20.893z"/>
		<path fill="#FFFFFF" d="M179.792,30.343c0,0.223,0.03,0.381,0.088,0.475c0.057,0.096,0.17,0.143,0.338,0.143
			c0.052,0,0.116,0,0.191,0c0.072,0,0.156-0.012,0.251-0.033v1.246c-0.062,0.021-0.144,0.045-0.244,0.07
			c-0.101,0.027-0.202,0.051-0.308,0.07c-0.106,0.021-0.21,0.037-0.316,0.049c-0.104,0.01-0.194,0.016-0.269,0.016
			c-0.367,0-0.672-0.074-0.914-0.221c-0.241-0.146-0.4-0.404-0.474-0.773c-0.357,0.348-0.797,0.6-1.316,0.758
			c-0.521,0.156-1.024,0.236-1.507,0.236c-0.368,0-0.722-0.051-1.06-0.15c-0.336-0.098-0.633-0.246-0.889-0.441
			c-0.261-0.193-0.464-0.441-0.617-0.74c-0.153-0.301-0.228-0.65-0.228-1.051c0-0.505,0.092-0.914,0.276-1.23
			c0.183-0.315,0.426-0.562,0.725-0.741c0.3-0.179,0.637-0.308,1.011-0.387c0.373-0.078,0.749-0.139,1.127-0.182
			c0.327-0.062,0.638-0.106,0.932-0.132c0.294-0.027,0.555-0.072,0.781-0.135c0.228-0.063,0.404-0.161,0.536-0.293
			c0.133-0.131,0.197-0.329,0.197-0.592c0-0.231-0.055-0.419-0.166-0.567c-0.108-0.147-0.245-0.26-0.409-0.338
			c-0.163-0.08-0.345-0.131-0.544-0.158c-0.198-0.026-0.39-0.039-0.567-0.039c-0.505,0-0.921,0.104-1.248,0.315
			c-0.324,0.21-0.51,0.537-0.551,0.978h-1.799c0.031-0.525,0.156-0.963,0.379-1.31c0.221-0.347,0.502-0.625,0.845-0.835
			c0.34-0.209,0.729-0.356,1.159-0.441c0.432-0.084,0.874-0.125,1.326-0.125c0.399,0,0.792,0.042,1.182,0.125
			c0.39,0.085,0.74,0.221,1.052,0.41c0.309,0.19,0.56,0.435,0.748,0.733c0.189,0.3,0.283,0.667,0.283,1.097v4.197H179.792z
			 M177.994,28.072c-0.273,0.18-0.608,0.287-1.011,0.324c-0.399,0.036-0.799,0.091-1.198,0.166c-0.19,0.031-0.374,0.076-0.553,0.133
			c-0.179,0.058-0.336,0.137-0.474,0.236c-0.137,0.101-0.244,0.231-0.323,0.396c-0.079,0.163-0.118,0.359-0.118,0.592
			c0,0.197,0.058,0.368,0.174,0.504s0.255,0.244,0.418,0.324c0.163,0.078,0.34,0.133,0.537,0.166
			c0.192,0.029,0.37,0.047,0.527,0.047c0.199,0,0.416-0.027,0.647-0.08c0.23-0.051,0.449-0.141,0.654-0.268
			c0.204-0.125,0.376-0.287,0.513-0.482c0.136-0.193,0.205-0.433,0.205-0.717L177.994,28.072L177.994,28.072z"/>
		<path fill="#FFFFFF" d="M187.239,26.729c-0.074-0.504-0.275-0.885-0.607-1.143c-0.331-0.257-0.749-0.386-1.255-0.386
			c-0.23,0-0.477,0.039-0.741,0.117c-0.262,0.08-0.505,0.227-0.725,0.442c-0.222,0.215-0.406,0.515-0.552,0.899
			c-0.148,0.384-0.223,0.886-0.223,1.507c0,0.337,0.04,0.674,0.118,1.009c0.079,0.339,0.207,0.638,0.379,0.901
			c0.174,0.263,0.397,0.476,0.67,0.638c0.273,0.164,0.605,0.246,0.994,0.246c0.527,0,0.959-0.166,1.303-0.49
			c0.343-0.328,0.554-0.784,0.639-1.373h1.8c-0.169,1.062-0.571,1.875-1.207,2.437c-0.638,0.562-1.48,0.844-2.533,0.844
			c-0.641,0-1.206-0.107-1.695-0.322c-0.488-0.217-0.901-0.512-1.238-0.885c-0.336-0.373-0.592-0.816-0.766-1.333
			c-0.174-0.516-0.26-1.074-0.26-1.673c0-0.61,0.085-1.184,0.253-1.719c0.168-0.538,0.421-1.002,0.756-1.397
			c0.336-0.395,0.756-0.705,1.256-0.93c0.5-0.226,1.087-0.339,1.759-0.339c0.474,0,0.923,0.061,1.348,0.182
			c0.428,0.122,0.807,0.302,1.137,0.544c0.332,0.242,0.603,0.546,0.812,0.915c0.211,0.369,0.337,0.804,0.38,1.308H187.239z"/>
		<path fill="#FFFFFF" d="M191.909,28.546c0,0.314,0.045,0.621,0.134,0.915c0.09,0.293,0.226,0.553,0.403,0.773
			c0.179,0.221,0.403,0.396,0.679,0.527c0.272,0.133,0.6,0.199,0.978,0.199c0.524,0,0.949-0.113,1.269-0.34
			c0.323-0.227,0.561-0.567,0.719-1.019h1.703c-0.095,0.441-0.259,0.837-0.488,1.185c-0.231,0.346-0.511,0.639-0.837,0.875
			s-0.691,0.416-1.097,0.535c-0.404,0.121-0.828,0.182-1.269,0.182c-0.642,0-1.21-0.105-1.704-0.314
			c-0.495-0.211-0.912-0.504-1.254-0.883c-0.343-0.379-0.601-0.832-0.774-1.357c-0.174-0.526-0.261-1.105-0.261-1.737
			c0-0.579,0.093-1.127,0.276-1.648c0.185-0.521,0.447-0.978,0.79-1.373c0.34-0.396,0.754-0.707,1.237-0.939
			c0.485-0.231,1.031-0.347,1.642-0.347c0.642,0,1.217,0.133,1.727,0.401c0.511,0.268,0.934,0.623,1.27,1.064
			c0.338,0.442,0.581,0.949,0.735,1.522c0.152,0.573,0.191,1.166,0.119,1.774h-5.996V28.546z M196.107,27.361
			c-0.021-0.284-0.082-0.557-0.182-0.82c-0.101-0.262-0.237-0.491-0.41-0.686c-0.175-0.195-0.385-0.352-0.631-0.473
			c-0.248-0.121-0.524-0.182-0.829-0.182c-0.316,0-0.603,0.055-0.859,0.165c-0.258,0.111-0.478,0.263-0.662,0.458
			c-0.186,0.194-0.331,0.424-0.441,0.687c-0.111,0.263-0.172,0.546-0.182,0.852L196.107,27.361L196.107,27.361z"/>
		<path fill="#FFFFFF" d="M199.327,20.893h1.799v4.166h0.03c0.126-0.201,0.28-0.379,0.458-0.538c0.18-0.158,0.376-0.292,0.592-0.401
			c0.215-0.11,0.443-0.195,0.679-0.253c0.235-0.057,0.47-0.086,0.702-0.086c0.642,0,1.2,0.112,1.682,0.339
			c0.477,0.226,0.875,0.537,1.189,0.93c0.315,0.395,0.553,0.855,0.711,1.381c0.157,0.524,0.236,1.089,0.236,1.688
			c0,0.549-0.07,1.079-0.213,1.594c-0.142,0.517-0.357,0.972-0.646,1.365c-0.29,0.395-0.655,0.711-1.097,0.947
			c-0.44,0.236-0.963,0.355-1.563,0.355c-0.272,0-0.549-0.018-0.827-0.055s-0.544-0.109-0.796-0.215
			c-0.254-0.104-0.482-0.242-0.687-0.41c-0.205-0.168-0.377-0.389-0.513-0.662h-0.031v1.119h-1.705L199.327,20.893L199.327,20.893z
			 M205.605,28.088c0-0.367-0.048-0.727-0.142-1.073c-0.095-0.348-0.236-0.655-0.425-0.923c-0.191-0.267-0.428-0.482-0.711-0.646
			c-0.285-0.163-0.611-0.244-0.979-0.244c-0.756,0-1.327,0.262-1.711,0.789s-0.575,1.227-0.575,2.098
			c0,0.41,0.048,0.793,0.147,1.145c0.101,0.352,0.251,0.655,0.451,0.907c0.199,0.253,0.439,0.453,0.717,0.601
			c0.278,0.146,0.604,0.221,0.971,0.221c0.411,0,0.758-0.086,1.042-0.254c0.285-0.168,0.518-0.387,0.702-0.654
			c0.184-0.27,0.316-0.574,0.395-0.916C205.568,28.795,205.605,28.445,205.605,28.088z"/>
		<path fill="#FFFFFF" d="M212.659,32.38c-0.653,0-1.234-0.107-1.743-0.324c-0.51-0.217-0.941-0.514-1.295-0.891
			c-0.353-0.379-0.62-0.83-0.805-1.358c-0.185-0.525-0.275-1.104-0.275-1.735c0-0.62,0.091-1.194,0.275-1.721
			c0.185-0.525,0.452-0.977,0.805-1.356c0.354-0.379,0.783-0.675,1.295-0.891c0.51-0.215,1.09-0.324,1.743-0.324
			c0.651,0,1.233,0.107,1.743,0.324c0.51,0.215,0.941,0.512,1.294,0.891c0.353,0.38,0.621,0.832,0.806,1.356
			c0.185,0.527,0.275,1.101,0.275,1.721c0,0.632-0.091,1.209-0.275,1.735c-0.185,0.528-0.453,0.979-0.806,1.358
			s-0.784,0.676-1.294,0.891S213.312,32.38,212.659,32.38z M212.659,30.96c0.399,0,0.747-0.084,1.04-0.252
			c0.296-0.17,0.538-0.391,0.727-0.664c0.189-0.272,0.329-0.581,0.418-0.922c0.089-0.343,0.134-0.692,0.134-1.05
			c0-0.348-0.045-0.694-0.134-1.042s-0.229-0.654-0.418-0.922c-0.189-0.269-0.432-0.487-0.727-0.656
			c-0.294-0.168-0.641-0.251-1.04-0.251c-0.4,0-0.748,0.083-1.042,0.251c-0.295,0.168-0.537,0.387-0.726,0.656
			c-0.19,0.268-0.329,0.575-0.419,0.922c-0.088,0.348-0.133,0.694-0.133,1.042c0,0.357,0.045,0.707,0.133,1.05
			c0.09,0.341,0.229,0.649,0.419,0.922c0.189,0.275,0.432,0.494,0.726,0.664C211.912,30.876,212.26,30.96,212.659,30.96z"/>
		<path fill="#FFFFFF" d="M222.016,32.38c-0.652,0-1.232-0.107-1.744-0.324c-0.51-0.215-0.941-0.514-1.294-0.891
			c-0.353-0.379-0.62-0.83-0.805-1.358c-0.185-0.525-0.274-1.104-0.274-1.735c0-0.62,0.09-1.194,0.274-1.721
			c0.185-0.525,0.452-0.977,0.805-1.356c0.353-0.379,0.784-0.675,1.294-0.891c0.512-0.215,1.092-0.324,1.744-0.324
			s1.233,0.107,1.744,0.324c0.508,0.215,0.94,0.512,1.293,0.891c0.353,0.38,0.62,0.832,0.806,1.356
			c0.184,0.527,0.275,1.101,0.275,1.721c0,0.632-0.092,1.209-0.275,1.735c-0.186,0.528-0.453,0.979-0.806,1.358
			s-0.784,0.676-1.293,0.891C223.25,32.271,222.668,32.38,222.016,32.38z M222.016,30.96c0.4,0,0.747-0.084,1.041-0.252
			c0.295-0.17,0.538-0.391,0.726-0.664c0.19-0.272,0.329-0.581,0.419-0.922c0.088-0.343,0.134-0.692,0.134-1.05
			c0-0.348-0.046-0.694-0.134-1.042c-0.09-0.348-0.229-0.654-0.419-0.922c-0.188-0.269-0.432-0.487-0.726-0.656
			c-0.295-0.168-0.641-0.251-1.041-0.251s-0.748,0.083-1.041,0.251c-0.296,0.168-0.537,0.387-0.728,0.656
			c-0.188,0.268-0.327,0.575-0.417,0.922c-0.088,0.348-0.134,0.694-0.134,1.042c0,0.357,0.046,0.707,0.134,1.05
			c0.09,0.341,0.229,0.649,0.417,0.922c0.19,0.275,0.434,0.494,0.728,0.664C221.269,30.876,221.617,30.96,222.016,30.96z"/>
		<path fill="#FFFFFF" d="M227.679,20.893h1.799v6.405l3.25-3.298h2.209l-3.125,2.998l3.424,5.159h-2.193l-2.492-3.958l-1.074,1.041
			v2.919h-1.798L227.679,20.893L227.679,20.893z"/>
	</g>
</g>
</svg>
